<svg xmlns:dc="http://purl.org/dc/elements/1.1/" xmlns:cc="http://creativecommons.org/ns#" xmlns:rdf="http://www.w3.org/1999/02/22-rdf-syntax-ns#" xmlns:svg="http://www.w3.org/2000/svg" xmlns="http://www.w3.org/2000/svg" xmlns:sodipodi="http://sodipodi.sourceforge.net/DTD/sodipodi-0.dtd" xmlns:inkscape="http://www.inkscape.org/namespaces/inkscape" version="1.1" id="svg2" xml:space="preserve" viewBox="0 0 1440 1440" sodipodi:docname="Apple.ai"><metadata id="metadata8"><rdf:rdf><cc:work rdf:about=""><dc:format>image/svg+xml</dc:format><dc:type rdf:resource="http://purl.org/dc/dcmitype/StillImage"></dc:type></cc:work></rdf:rdf></metadata><defs id="defs6"><clipPath clipPathUnits="userSpaceOnUse" id="clipPath18"><path d="M 0,1080 H 1080 V 0 H 0 Z" id="path16"></path></clipPath></defs><sodipodi:namedview pagecolor="#ffffff" bordercolor="#666666" borderopacity="1" objecttolerance="10" gridtolerance="10" guidetolerance="10" inkscape:pageopacity="0" inkscape:pageshadow="2" inkscape:window-width="640" inkscape:window-height="480" id="namedview4"></sodipodi:namedview><g id="g10" inkscape:groupmode="layer" inkscape:label="Apple" transform="matrix(1.3333333,0,0,-1.3333333,0,1440)"><g id="g12"><g id="g14" clip-path="url(#clipPath18)"><g id="g20" transform="translate(131.9019,649.7944)"><path d="m 0,0 c 13.862,18.271 33.135,18.36 33.135,18.36 0,0 2.866,-17.178 -10.905,-33.726 -14.705,-17.669 -31.419,-14.778 -31.419,-14.778 0,0 -3.139,13.896 9.189,30.144" style="fill:#000000;fill-opacity:1;fill-rule:evenodd;stroke:none" id="path22"></path></g><g id="g24" transform="translate(124.4761,607.6172)"><path d="m 0,0 c 7.132,0 20.367,9.803 37.596,9.803 29.655,0 41.321,-21.101 41.321,-21.101 0,0 -22.817,-11.666 -22.817,-39.973 0,-31.934 28.424,-42.939 28.424,-42.939 0,0 -19.87,-55.926 -46.708,-55.926 -12.327,0 -21.91,8.307 -34.898,8.307 -13.235,0 -26.371,-8.617 -34.925,-8.617 -24.508,0 -55.469,53.051 -55.469,95.695 0,41.957 26.207,63.966 50.788,63.966 C -20.708,9.215 -8.308,0 0,0" style="fill:#000000;fill-opacity:1;fill-rule:evenodd;stroke:none" id="path26"></path></g><g id="g28" transform="translate(350.8809,540.6406)"><path d="M 0,0 H 59.979 L 30.575,90.116 H 29.551 Z M 68.903,-29.111 H -8.777 L -26.771,-83.678 H -65.684 L 9.217,127.419 h 42.57 L 126.688,-83.678 H 86.897 Z" style="fill:#000000;fill-opacity:1;fill-rule:nonzero;stroke:none" id="path30"></path></g><g id="g32" transform="translate(608.6523,534.4971)"><path d="M 0,0 C 0,30.574 -14.63,50.177 -38.183,50.177 -60.857,50.177 -75.925,30.136 -76.071,0 -75.925,-30.429 -60.857,-50.178 -38.183,-50.178 -14.63,-50.178 0,-30.722 0,0 m 37.304,0 c 0,-49.446 -24.869,-80.021 -63.783,-80.021 -22.529,0 -40.084,10.825 -48.568,28.234 h -0.732 v -76.803 h -36.427 V 77.534 h 35.549 V 50.763 h 0.732 c 8.778,17.993 26.332,29.404 48.861,29.404 39.352,0 64.368,-30.575 64.368,-80.167" style="fill:#000000;fill-opacity:1;fill-rule:nonzero;stroke:none" id="path34"></path></g><g id="g36" transform="translate(781.5732,534.4971)"><path d="M 0,0 C 0,30.574 -14.629,50.177 -38.182,50.177 -60.857,50.177 -75.925,30.136 -76.071,0 -75.925,-30.429 -60.857,-50.178 -38.182,-50.178 -14.629,-50.178 0,-30.722 0,0 m 37.305,0 c 0,-49.446 -24.87,-80.021 -63.784,-80.021 -22.529,0 -40.084,10.825 -48.568,28.234 h -0.731 v -76.803 h -36.427 V 77.534 h 35.549 V 50.763 h 0.731 c 8.778,17.993 26.332,29.404 48.861,29.404 39.353,0 64.369,-30.575 64.369,-80.167" style="fill:#000000;fill-opacity:1;fill-rule:nonzero;stroke:none" id="path38"></path></g><path d="m 843.312,668.06 h 36.427 V 456.963 h -36.427 z" style="fill:#000000;fill-opacity:1;fill-rule:nonzero;stroke:none" id="path40"></path><g id="g42" transform="translate(940.8916,549.7109)"><path d="M 0,0 H 72.414 C 71.683,21.944 57.639,37.304 36.719,37.304 16.238,37.304 1.463,21.651 0,0 m 106.646,-46.374 c -4.682,-29.258 -31.891,-49.446 -68.61,-49.446 -46.521,0 -74.608,30.574 -74.608,80.02 0,49.008 28.38,81.339 73.145,81.339 44.033,0 71.535,-30.576 71.535,-77.681 v -11.85 H -0.293 v -2.194 c 0,-24.87 15.215,-41.546 39.06,-41.546 16.969,0 29.843,8.484 33.794,21.358 z" style="fill:#000000;fill-opacity:1;fill-rule:nonzero;stroke:none" id="path44"></path></g></g></g></g></svg>